{"title":"Cube (19997) DVDrip","uid":6978660,"size":710516084,"categoryP":"video","categoryS":"movies","magnet":"?xt=urn:btih:04de374a277fefe4aa047ae9b685466dfc02f3a0&amp;dn=Cube+%2819997%29+DVDrip&amp;tr=udp%3A%2F%2Ftracker.openbittorrent.com%3A80&amp;tr=udp%3A%2F%2Fopen.demonii.com%3A1337&amp;tr=udp%3A%2F%2Ftracker.coppersurfer.tk%3A6969&amp;tr=udp%3A%2F%2Fexodus.desync.com%3A6969","seeders":0,"leechers":1,"uploader":"xiliaeuro","files":2,"time":1327327573,"description":"Cube (1997)\n\n90 min  -  Horror | Mystery | Sci-Fi \n\n IMDB RATING 7.5/10\n\n7 complete strangers of widely varying personality characteristics are involuntarily placed in an endless kafkaesque maze containing deadly traps. \n\n\nFormat                         : AVI\nFormat/Info                    : Audio Video Interleave\nFile size                      : 678 MiB\nDuration                       : 1h 26mn\nOverall bit rate               : 1 094 Kbps\n\nVideo\nID                             : 0\nFormat                         : MPEG-4 Visual\nFormat settings, BVOP          : Yes\nFormat settings, QPel          : No\nFormat settings, GMC           : No warppoints\nFormat settings, Matrix        : Default (H.263)\nCodec ID                       : DX50\nCodec ID/Hint                  : DivX 5\nDuration                       : 1h 26mn\nBit rate                       : 969 Kbps\nWidth                          : 640 pixels\nHeight                         : 368 pixels\nDisplay aspect ratio           : 16:9\nFrame rate                     : 25.000 fps\nColor space                    : YUV\nChroma subsampling             : 4:2:0\nBit depth                      : 8 bits\nScan type                      : Progressive\nCompression mode               : Lossy\nBits/(Pixel*Frame)             : 0.165\nStream size                    : 600 MiB (89%)\nTitle                          : NeoVideo92CF\nWriting library                : DivX 5.0.2 (UTC 2002-05-16)\n\nAudio\nID                             : 1\nFormat                         : MPEG Audio\nFormat version                 : Version 1\nFormat profile                 : Layer 3\nMode                           : Joint stereo\nMode extension                 : MS Stereo\nCodec ID                       : 55\nCodec ID/Hint                  : MP3\nDuration                       : 1h 26mn\nBit rate mode                  : Constant\nBit rate                       : 112 Kbps\nChannel(s)                     : 2 channels\nSampling rate                  : 48.0 KHz\nCompression mode               : Lossy\nStream size                    : 69.4 MiB (10%)\nAlignment                      : Split accross interleaves\nInterleave, duration           : 24 ms (0.60 video frame)\nInterleave, preload duration   : 22 ms\nTitle                          : NeoSound92CF0","torrent":{"xt":"urn:btih:04de374a277fefe4aa047ae9b685466dfc02f3a0","amp;dn":"Cube+%2819997%29+DVDrip","amp;tr":["udp%3A%2F%2Ftracker.openbittorrent.com%3A80","udp%3A%2F%2Fopen.demonii.com%3A1337","udp%3A%2F%2Ftracker.coppersurfer.tk%3A6969","udp%3A%2F%2Fexodus.desync.com%3A6969"],"infoHash":"04de374a277fefe4aa047ae9b685466dfc02f3a0","infoHashBuffer":{"type":"Buffer","data":[4,222,55,74,39,127,239,228,170,4,122,233,182,133,70,109,252,2,243,160]},"announce":[],"urlList":[]}}